<svg id="visual" viewBox="0 0 960 540" width="960" height="540" xmlns="http://www.w3.org/2000/svg" xmlns:xlink="http://www.w3.org/1999/xlink" version="1.1"><rect x="0" y="0" width="960" height="540" fill="#90bbdb"></rect><path d="M0 81L17.8 81.5C35.7 82 71.3 83 106.8 83.7C142.3 84.3 177.7 84.7 213.2 86.5C248.7 88.3 284.3 91.7 320 90.8C355.7 90 391.3 85 426.8 84C462.3 83 497.7 86 533.2 88.2C568.7 90.3 604.3 91.7 640 93.7C675.7 95.7 711.3 98.3 746.8 99.5C782.3 100.7 817.7 100.3 853.2 98.5C888.7 96.7 924.3 93.3 942.2 91.7L960 90L960 0L942.2 0C924.3 0 888.7 0 853.2 0C817.7 0 782.3 0 746.8 0C711.3 0 675.7 0 640 0C604.3 0 568.7 0 533.2 0C497.7 0 462.3 0 426.8 0C391.3 0 355.7 0 320 0C284.3 0 248.7 0 213.2 0C177.7 0 142.3 0 106.8 0C71.3 0 35.7 0 17.8 0L0 0Z" fill="#9198e0"></path><path d="M0 72L17.8 72.8C35.7 73.7 71.3 75.3 106.8 76.8C142.3 78.3 177.7 79.7 213.2 78.7C248.7 77.7 284.3 74.3 320 70.7C355.7 67 391.3 63 426.8 61.2C462.3 59.3 497.7 59.7 533.2 63.2C568.7 66.7 604.3 73.3 640 76.5C675.7 79.7 711.3 79.3 746.8 76.7C782.3 74 817.7 69 853.2 69.2C888.7 69.3 924.3 74.7 942.2 77.3L960 80L960 0L942.2 0C924.3 0 888.7 0 853.2 0C817.7 0 782.3 0 746.8 0C711.3 0 675.7 0 640 0C604.3 0 568.7 0 533.2 0C497.7 0 462.3 0 426.8 0C391.3 0 355.7 0 320 0C284.3 0 248.7 0 213.2 0C177.7 0 142.3 0 106.8 0C71.3 0 35.7 0 17.8 0L0 0Z" fill="#b57acf"></path><path d="M0 54L17.8 54.7C35.7 55.3 71.3 56.7 106.8 57.7C142.3 58.7 177.7 59.3 213.2 59.2C248.7 59 284.3 58 320 57.8C355.7 57.7 391.3 58.3 426.8 59.7C462.3 61 497.7 63 533.2 60.3C568.7 57.7 604.3 50.3 640 48C675.7 45.7 711.3 48.3 746.8 48.8C782.3 49.3 817.7 47.7 853.2 46.5C888.7 45.3 924.3 44.7 942.2 44.3L960 44L960 0L942.2 0C924.3 0 888.7 0 853.2 0C817.7 0 782.3 0 746.8 0C711.3 0 675.7 0 640 0C604.3 0 568.7 0 533.2 0C497.7 0 462.3 0 426.8 0C391.3 0 355.7 0 320 0C284.3 0 248.7 0 213.2 0C177.7 0 142.3 0 106.8 0C71.3 0 35.7 0 17.8 0L0 0Z" fill="#d754a5"></path><path d="M0 47L17.8 47C35.7 47 71.3 47 106.8 47C142.3 47 177.7 47 213.2 43.3C248.7 39.7 284.3 32.3 320 32.2C355.7 32 391.3 39 426.8 40.3C462.3 41.7 497.7 37.3 533.2 35.2C568.7 33 604.3 33 640 32.7C675.7 32.3 711.3 31.7 746.8 30.7C782.3 29.7 817.7 28.3 853.2 28.8C888.7 29.3 924.3 31.7 942.2 32.8L960 34L960 0L942.2 0C924.3 0 888.7 0 853.2 0C817.7 0 782.3 0 746.8 0C711.3 0 675.7 0 640 0C604.3 0 568.7 0 533.2 0C497.7 0 462.3 0 426.8 0C391.3 0 355.7 0 320 0C284.3 0 248.7 0 213.2 0C177.7 0 142.3 0 106.8 0C71.3 0 35.7 0 17.8 0L0 0Z" fill="#e52868"></path><path d="M0 21L17.8 21.8C35.7 22.7 71.3 24.3 106.8 23.2C142.3 22 177.7 18 213.2 17.5C248.7 17 284.3 20 320 19.2C355.7 18.3 391.3 13.7 426.8 14.2C462.3 14.7 497.7 20.3 533.2 20.5C568.7 20.7 604.3 15.3 640 12C675.7 8.7 711.3 7.3 746.8 8.5C782.3 9.7 817.7 13.3 853.2 16.2C888.7 19 924.3 21 942.2 22L960 23L960 0L942.2 0C924.3 0 888.7 0 853.2 0C817.7 0 782.3 0 746.8 0C711.3 0 675.7 0 640 0C604.3 0 568.7 0 533.2 0C497.7 0 462.3 0 426.8 0C391.3 0 355.7 0 320 0C284.3 0 248.7 0 213.2 0C177.7 0 142.3 0 106.8 0C71.3 0 35.7 0 17.8 0L0 0Z" fill="#d81d1d"></path></svg>